<?xml version="1.0" standalone="no"?>
<!DOCTYPE svg PUBLIC "-//W3C//DTD SVG 20010904//EN"
 "http://www.w3.org/TR/2001/REC-SVG-20010904/DTD/svg10.dtd">
<svg version="1.0" xmlns="http://www.w3.org/2000/svg"
 width="700.000000pt" height="700.000000pt" viewBox="0 0 700.000000 700.000000"
 preserveAspectRatio="xMidYMid meet">
<metadata>
Created by potrace 1.11, written by Peter Selinger 2001-2013
</metadata>
<g transform="translate(0.000000,700.000000) scale(0.100000,-0.100000)"
fill="#000000" stroke="none">
<path d="M1106 6989 c-475 -62 -887 -403 -1040 -861 -14 -40 -33 -111 -43
-158 -17 -81 -18 -201 -18 -2470 0 -2286 1 -2388 19 -2469 76 -349 260 -624
546 -818 118 -80 301 -155 460 -190 81 -17 199 -18 2470 -18 2271 0 2389 1
2470 18 398 86 715 329 893 682 52 103 87 205 113 325 18 82 19 183 19 2470 0
2269 -1 2389 -18 2470 -55 257 -173 477 -352 655 -175 175 -384 289 -645 351
-71 17 -204 18 -2440 20 -1336 1 -2395 -2 -2434 -7z m972 -2139 c254 -17 439
-86 561 -208 120 -121 164 -240 164 -437 0 -136 -17 -216 -65 -308 -57 -106
-183 -200 -310 -229 l-49 -12 91 -32 c174 -62 297 -168 371 -319 56 -116 70
-179 70 -325 1 -95 -4 -144 -20 -203 -69 -261 -262 -428 -576 -500 -84 -19
-129 -21 -667 -24 l-578 -4 0 1305 0 1306 438 0 c240 -1 497 -5 570 -10z
m1785 -1087 c226 -601 413 -1090 416 -1087 4 3 191 494 416 1092 l410 1087
183 3 183 2 -7 -22 c-4 -13 -226 -599 -495 -1303 l-488 -1280 -202 0 -203 0
-493 1290 c-271 710 -493 1296 -493 1303 0 10 40 12 181 10 l182 -3 410 -1092z
m1927 -1293 l0 -220 -185 0 -185 0 0 220 0 220 185 0 185 0 0 -220z"/>
<path d="M1420 4175 l0 -397 348 4 c329 4 351 6 417 27 194 64 273 182 262
390 -8 152 -64 247 -182 305 -103 50 -162 57 -517 63 l-328 5 0 -397z"/>
<path d="M1420 3014 l0 -476 373 4 c339 4 378 6 439 25 142 43 235 126 280
249 26 71 36 252 19 335 -27 129 -102 227 -215 280 -113 53 -166 59 -548 59
l-348 0 0 -476z"/>
</g>
</svg>
